<svg xmlns="http://www.w3.org/2000/svg" viewBox="0 0 680 400" fill="none">
  <style>
    text { font-family: 'Source Sans 3', 'Source Sans Pro', system-ui, sans-serif; }
    .title { font-size: 14px; font-weight: 700; font-family: 'Lato', 'Source Sans 3', system-ui, sans-serif; letter-spacing: -0.02em; }
    .subtitle { font-size: 12px; font-weight: 600; }
    .body { font-size: 13px; }
    .body-bold { font-size: 13px; font-weight: 600; }
    .review-title { font-size: 13px; font-weight: 700; }
    .footer { font-size: 13px; }
  </style>

  <!-- Phase 1: Research -->
  <rect x="16" y="16" width="196" height="208" rx="12" fill="rgba(0,112,203,0.07)"/>
  <text x="114" y="40" text-anchor="middle" class="title" fill="var(--heading)">Phase 1: Research</text>
  <text x="114" y="56" text-anchor="middle" class="subtitle" fill="var(--text-muted)">(fresh context)</text>

  <text x="36" y="80" class="body" fill="var(--text)">Input:</text>
  <text x="48" y="98" class="body" fill="var(--text-muted)">- ticket / issue</text>
  <text x="48" y="116" class="body" fill="var(--text-muted)">- codebase</text>
  <text x="36" y="142" class="body" fill="var(--text)">Agent searches, reads,</text>
  <text x="36" y="160" class="body" fill="var(--text)">maps the codebase</text>
  <text x="36" y="186" class="body" fill="var(--text)">Output:</text>
  <text x="48" y="204" class="body-bold" fill="var(--accent)">research.md</text>

  <!-- Arrow 1-2 -->
  <line x1="212" y1="120" x2="232" y2="120" stroke="var(--accent)" stroke-width="2"/>
  <polygon points="232,114 244,120 232,126" fill="var(--accent)"/>

  <!-- Phase 2: Plan -->
  <rect x="242" y="16" width="196" height="208" rx="12" fill="rgba(239,156,3,0.07)"/>
  <text x="340" y="40" text-anchor="middle" class="title" fill="var(--heading)">Phase 2: Plan</text>
  <text x="340" y="56" text-anchor="middle" class="subtitle" fill="var(--text-muted)">(fresh context)</text>

  <text x="262" y="80" class="body" fill="var(--text)">Input:</text>
  <text x="274" y="98" class="body" fill="var(--text-muted)">- research.md</text>
  <text x="274" y="116" class="body" fill="var(--text-muted)">- ticket / issue</text>
  <text x="262" y="142" class="body" fill="var(--text)">Agent creates step-by-step</text>
  <text x="262" y="160" class="body" fill="var(--text)">implementation plan</text>
  <text x="262" y="186" class="body" fill="var(--text)">Output:</text>
  <text x="274" y="204" class="body-bold" fill="var(--accent)">plan.md</text>

  <!-- Arrow 2-3 -->
  <line x1="438" y1="120" x2="458" y2="120" stroke="var(--accent)" stroke-width="2"/>
  <polygon points="458,114 470,120 458,126" fill="var(--accent)"/>

  <!-- Phase 3: Implement -->
  <rect x="468" y="16" width="196" height="208" rx="12" fill="rgba(40,200,64,0.07)"/>
  <text x="566" y="40" text-anchor="middle" class="title" fill="var(--heading)">Phase 3: Implement</text>
  <text x="566" y="56" text-anchor="middle" class="subtitle" fill="var(--text-muted)">(fresh context)</text>

  <text x="488" y="80" class="body" fill="var(--text)">Input:</text>
  <text x="500" y="98" class="body" fill="var(--text-muted)">- plan.md</text>
  <text x="500" y="116" class="body" fill="var(--text-muted)">- codebase</text>
  <text x="488" y="142" class="body" fill="var(--text)">Agent follows plan</text>
  <text x="488" y="160" class="body" fill="var(--text)">phase by phase</text>
  <text x="488" y="186" class="body" fill="var(--text)">Output:</text>
  <text x="500" y="204" class="body-bold" fill="var(--accent)">working code</text>

  <!-- Connection lines to review boxes -->
  <line x1="114" y1="224" x2="114" y2="252" stroke="var(--border)" stroke-width="1.5"/>
  <polygon points="108,252 114,262 120,252" fill="var(--border)"/>

  <line x1="340" y1="224" x2="340" y2="252" stroke="var(--border)" stroke-width="1.5"/>
  <polygon points="334,252 340,262 346,252" fill="var(--border)"/>

  <line x1="566" y1="224" x2="566" y2="252" stroke="var(--border)" stroke-width="1.5"/>
  <polygon points="560,252 566,262 572,252" fill="var(--border)"/>

  <!-- Human Review 1 -->
  <rect x="30" y="262" width="168" height="76" rx="8" fill="var(--card-bg)" stroke="var(--border)" stroke-width="1"/>
  <text x="114" y="286" text-anchor="middle" class="review-title" fill="var(--heading)">Human Review</text>
  <text x="114" y="304" text-anchor="middle" class="body" fill="var(--text-muted)">Is the research correct?</text>
  <text x="114" y="322" text-anchor="middle" class="body-bold" fill="#df3c30">Highest leverage!</text>

  <!-- Human Review 2 -->
  <rect x="256" y="262" width="168" height="76" rx="8" fill="var(--card-bg)" stroke="var(--border)" stroke-width="1"/>
  <text x="340" y="286" text-anchor="middle" class="review-title" fill="var(--heading)">Human Review</text>
  <text x="340" y="304" text-anchor="middle" class="body" fill="var(--text-muted)">Is the plan sound?</text>
  <text x="340" y="322" text-anchor="middle" class="body-bold" fill="#ef9c03">High leverage!</text>

  <!-- Human Review 3 -->
  <rect x="482" y="262" width="168" height="76" rx="8" fill="var(--card-bg)" stroke="var(--border)" stroke-width="1"/>
  <text x="566" y="286" text-anchor="middle" class="review-title" fill="var(--heading)">Human Review</text>
  <text x="566" y="304" text-anchor="middle" class="body" fill="var(--text-muted)">Does the code work?</text>
  <text x="566" y="322" text-anchor="middle" class="body-bold" fill="#28c840">Standard review</text>

  <!-- Footer -->
  <text x="340" y="376" text-anchor="middle" class="footer" fill="var(--text-muted)">Each phase starts with a fresh context window.</text>
  <text x="340" y="394" text-anchor="middle" class="footer" fill="var(--text-muted)">Output of one phase becomes compact input for the next.</text>
</svg>
